<svg class="mc-reddit-icon" xmlns="http://www.w3.org/2000/svg" width="40" height="40" viewBox="0 0 40 40" fill="none" role="presentation">
                                <rect width="40" height="40" rx="20" fill="#262423"></rect>
                                <path d="M32 20.1949C32 18.7008 30.819 17.4882 29.3638 17.4882C28.6467 17.4882 28.0141 17.7697 27.5501 18.2461C25.7575 16.9252 23.2689 16.0591 20.5272 15.9508L21.7293 10.1693L25.6309 11.0138C25.6731 12.0315 26.4956 12.8543 27.5079 12.8543C28.5413 12.8543 29.3849 11.9882 29.3849 10.9272C29.3849 9.86614 28.5413 9 27.5079 9C26.7698 9 26.1371 9.43307 25.8418 10.0827L21.4763 9.12992C21.3497 9.10827 21.2232 9.12992 21.1178 9.19488C21.0123 9.25984 20.949 9.36811 20.9069 9.49803L19.5782 15.9508C16.7733 16.0374 14.2636 16.8819 12.4499 18.2461C11.9859 17.7913 11.3322 17.4882 10.6362 17.4882C9.18102 17.4882 8 18.7008 8 20.1949C8 21.2992 8.63269 22.2303 9.56063 22.6634C9.51845 22.9232 9.49736 23.2047 9.49736 23.4862C9.49736 27.6437 14.2004 31 20.0211 31C25.8418 31 30.5448 27.6437 30.5448 23.4862C30.5448 23.2047 30.5237 22.9449 30.4815 22.685C31.3462 22.252 32 21.2992 32 20.1949ZM13.9684 22.122C13.9684 21.061 14.812 20.1949 15.8453 20.1949C16.8787 20.1949 17.7223 21.061 17.7223 22.122C17.7223 23.1831 16.8787 24.0492 15.8453 24.0492C14.812 24.0492 13.9684 23.1831 13.9684 22.122ZM24.4499 27.2106C23.1634 28.5315 20.717 28.6181 20 28.6181C19.283 28.6181 16.8155 28.5098 15.5501 27.2106C15.3603 27.0157 15.3603 26.6909 15.5501 26.4961C15.7399 26.3012 16.0562 26.3012 16.246 26.4961C17.0475 27.3189 18.7768 27.622 20.0211 27.622C21.2654 27.622 22.9736 27.3189 23.7961 26.4961C23.9859 26.3012 24.3023 26.3012 24.4921 26.4961C24.6397 26.7126 24.6397 27.0157 24.4499 27.2106ZM24.1125 24.0492C23.0791 24.0492 22.2355 23.1831 22.2355 22.122C22.2355 21.061 23.0791 20.1949 24.1125 20.1949C25.1459 20.1949 25.9895 21.061 25.9895 22.122C25.9895 23.1831 25.1459 24.0492 24.1125 24.0492Z" fill="white"></path>
                            </svg>