<svg class="mc-twitter-icon" xmlns="http://www.w3.org/2000/svg" width="40" height="40" viewBox="0 0 40 40" fill="none" role="presentation">
                                <rect width="40" height="40" rx="20" fill="#262423"></rect>
                                <path d="M29.5337 14.98C29.5435 15.2 29.5435 15.41 29.5435 15.63C29.5532 22.3 24.6011 30 15.5451 30C12.8741 30 10.2518 29.21 8 27.73C8.38993 27.78 8.77985 27.8 9.16978 27.8C11.3826 27.8 13.537 27.04 15.2819 25.63C13.1763 25.59 11.3241 24.18 10.6807 22.12C11.4216 22.27 12.182 22.24 12.9033 22.03C10.6125 21.57 8.96507 19.5 8.95532 17.09C8.95532 17.07 8.95532 17.05 8.95532 17.03C9.63769 17.42 10.4078 17.64 11.1877 17.66C9.03331 16.18 8.36068 13.2299 9.66694 10.9199C12.1722 14.0799 15.857 15.99 19.8148 16.2C19.4151 14.45 19.961 12.6099 21.238 11.3699C23.2169 9.45993 26.3363 9.55993 28.208 11.5899C29.3095 11.3699 30.3721 10.9499 31.3371 10.3599C30.9667 11.5299 30.1966 12.5199 29.173 13.1499C30.1478 13.0299 31.1032 12.7599 32 12.3599C31.3371 13.3799 30.4988 14.2599 29.5337 14.98Z" fill="white"></path>
                            </svg>