<svg class="mc-youtube-icon" xmlns="http://www.w3.org/2000/svg" width="40" height="40" viewBox="0 0 40 40" fill="none" role="presentation">
                                <rect width="40" height="40" rx="20" fill="#262423"></rect>
                                <path fill-rule="evenodd" clip-rule="evenodd" d="M29.3904 12.4894C30.4184 12.7529 31.229 13.5247 31.5058 14.5035C32.0198 16.2918 32 20.0188 32 20.0188C32 20.0188 32 23.7271 31.5058 25.5153C31.229 26.4941 30.4184 27.2659 29.3904 27.5294C27.5123 28 20 28 20 28C20 28 12.5074 28 10.6096 27.5106C9.58155 27.2471 8.771 26.4753 8.49423 25.4965C8 23.7271 8 20 8 20C8 20 8 16.2918 8.49423 14.5035C8.771 13.5247 9.60132 12.7341 10.6096 12.4706C12.4876 12 20 12 20 12C20 12 27.5123 12 29.3904 12.4894ZM23.855 20.0001L17.6079 23.426V16.5742L23.855 20.0001Z" fill="white"></path>
                            </svg>